#!OML:ASF X:\2005_08_12_Meinard\c3d\meinard.ASF
:FULLY-SPECIFIED
:DEGREES
1695
root 7.89866 16.8598 -3.33365 -8.31958 -67.9729 -8.37043
lowerback 32.1409 -2.19232 -2.79697
upperback 7.96295 -4.3684 -0.57141
thorax -8.32707 -2.30047 2.65934
lowerneck -14.2279 1.1927 9.28882
upperneck 4.28909 0.0628855 -2.37961
head 3.56997 0.0550075 -2.2134
rclavicle -1.07344e-014 -1.59028e-015
rhumerus 25.5912 45.39 -71.0512
rradius 126.295
rwrist -13.9071
rhand -27.5203 -1.39398
rfingers 7.12502
rthumb -0.922649 -31.3717
lclavicle -1.07344e-014 -1.59028e-015
lhumerus 170.682 164.311 248.812
lradius 34.4732
lwrist -27.9131
lhand -13.1773 -12.3738
lfingers 7.12502
lthumb 12.9223 17.2061
rfemur -8.17968 -9.26832 19.3964
rtibia 37.5516
rfoot -13.6618 5.7592
rtoes -18.5123
lfemur 18.309 1.03654 -19.024
ltibia 25.1892
lfoot -25.3058 3.43315
ltoes -13.3178
1696
root 7.81958 16.8442 -3.32204 -8.06598 -67.9086 -8.67283
lowerback 32.1259 -2.22343 -2.69276
upperback 7.95713 -4.36715 -0.516175
thorax -8.32968 -2.30056 2.66075
lowerneck -14.2463 1.255 9.38981
upperneck 4.20597 0.134119 -2.48703
head 3.5515 0.0838231 -2.25753
rclavicle 3.53837e-014 -1.90833e-014
rhumerus 25.8725 45.38 -70.8111
rradius 126.365
rwrist -13.8369
rhand -27.7187 -1.40924
rfingers 7.12502
rthumb -1.11425 -31.3861
lclavicle 3.53837e-014 -1.90833e-014
lhumerus 171.504 165.416 248.148
lradius 36.0644
lwrist -28.4029
lhand -13.8522 -12.3711
lfingers 7.12502
lthumb 12.2716 17.2489
rfemur -8.32536 -9.44693 19.6987
rtibia 36.8332
rfoot -13.3786 5.73061
rtoes -18.1099
lfemur 18.6483 1.05154 -18.7698
ltibia 25.1803
lfoot -25.4974 3.2948
ltoes -13.3118
1697
root 7.73998 16.8254 -3.31124 -7.86711 -67.8391 -8.9322
lowerback 32.1133 -2.25754 -2.60008
upperback 7.95738 -4.37506 -0.471768
thorax -8.326 -2.30532 2.65983
lowerneck -14.1779 1.38283 9.69165
upperneck 4.08084 0.279876 -2.76695
head 3.51168 0.143538 -2.38174
rclavicle -4.96962e-014 -2.14687e-014
rhumerus 26.1672 45.355 -70.5795
rradius 126.474
rwrist -13.7724
rhand -27.9101 -1.54434
rfingers 7.12502
rthumb -1.29909 -31.5201
lclavicle -4.96962e-014 -2.14687e-014
lhumerus 172.507 166.349 247.415
lradius 37.3052
lwrist -28.9462
lhand -14.6329 -12.5079
lfingers 7.12502
lthumb 11.5188 17.1556
rfemur -8.41536 -9.65682 19.9837
rtibia 36.2082
rfoot -13.1187 5.65477
rtoes -17.2549
lfemur 18.9851 1.09056 -18.5163
ltibia 25.2146
lfoot -25.7299 3.16423
ltoes -13.4349
1698
root 7.65929 16.807 -3.29918 -7.66588 -67.8092 -9.19498
lowerback 32.0649 -2.28788 -2.47863
upperback 7.97117 -4.36808 -0.421641
thorax -8.29257 -2.30487 2.64063
lowerneck -14.123 1.50148 9.87693
upperneck 3.95169 0.427843 -2.98533
head 3.47341 0.205451 -2.46831
rclavicle -1.39149e-015 -6.36111e-015
rhumerus 26.5396 45.3371 -70.2627
rradius 126.537
rwrist -13.7433
rhand -28.1596 -1.72319
rfingers 7.12502
rthumb -1.54008 -31.6974
lclavicle -1.39149e-015 -6.36111e-015
lhumerus 173.689 166.984 246.675
lradius 38.2648
lwrist -29.6274
lhand -15.4232 -12.8134
lfingers 7.12502
lthumb 10.7566 16.8912
rfemur -8.49792 -9.9151 20.2672
rtibia 35.7122
rfoot -12.9107 5.55281
rtoes -16.423
lfemur 19.2964 1.13779 -18.27
ltibia 25.3256
lfoot -25.9825 3.05651
ltoes -13.4742
1699
root 7.57852 16.7871 -3.28722 -7.4173 -67.8051 -9.52522
lowerback 32.0273 -2.33238 -2.28093
upperback 7.98095 -4.35654 -0.381715
thorax -8.27551 -2.30252 2.56535
lowerneck -14.0706 1.59946 9.90334
upperneck 3.85088 0.567117 -3.08547
head 3.44346 0.2674 -2.49368
rclavicle -1.78906e-014 9.54166e-015
rhumerus 26.9013 45.315 -69.9649
rradius 126.593
rwrist -13.716
rhand -28.3836 -1.9279
rfingers 7.12502
rthumb -1.75637 -31.9004
lclavicle -1.78906e-014 9.54166e-015
lhumerus 174.919 167.523 245.861
lradius 39.1226
lwrist -30.2404
lhand -16.1583 -13.2131
lfingers 7.12502
lthumb 10.0474 16.527
rfemur -8.54571 -10.2065 20.5771
rtibia 35.3402
rfoot -12.7546 5.3751
rtoes -15.6921
lfemur 19.5911 1.18889 -17.996
ltibia 25.5074
lfoot -26.2779 2.95513
ltoes -13.3835
1700
root 7.49793 16.766 -3.27468 -7.22817 -67.8193 -9.80051
lowerback 31.9906 -2.3724 -2.07603
upperback 8.00158 -4.3386 -0.346283
thorax -8.24746 -2.29804 2.47807
lowerneck -14.0397 1.70371 9.91746
upperneck 3.7318 0.717315 -3.22421
head 3.41232 0.332071 -2.52837
rclavicle 5.54609e-014 -8.74653e-015
rhumerus 27.3463 45.2576 -69.6687
rradius 126.536
rwrist -13.6899
rhand -28.5375 -2.08207
rfingers 7.12502
rthumb -1.90504 -32.0533
lclavicle 5.54609e-014 -8.74653e-015
lhumerus 176.236 168.009 245.012
lradius 39.8516
lwrist -30.7534
lhand -17.003 -13.6416
lfingers 7.12502
lthumb 9.23248 16.1362
rfemur -8.56585 -10.5357 20.8422
rtibia 35.0926
rfoot -12.6006 5.14828
rtoes -14.9349
lfemur 19.8612 1.26059 -17.7466
ltibia 25.7566
lfoot -26.5609 2.86672
ltoes -13.4141
